<mxfile host="drawio-plugin" modified="2022-01-06T09:43:09.075Z" agent="5.0 (Windows NT 6.2; Win64; x64) AppleWebKit/537.36 (KHTML, like Gecko) Chrome/89.0.4389.114 Safari/537.36" etag="IUtS4jbgHsoEGS2LZSLN" version="15.5.4" type="embed"><diagram id="hPP65-mtapb-A1kznAUx" name="Page-1"><mxGraphModel dx="1119" dy="743" grid="1" gridSize="10" guides="1" tooltips="1" connect="1" arrows="1" fold="1" page="1" pageScale="1" pageWidth="850" pageHeight="1100" math="0" shadow="0"><root><mxCell id="0"/><mxCell id="1" parent="0"/><mxCell id="2" value="Resume" style="shape=table;html=1;whiteSpace=wrap;startSize=30;container=1;collapsible=0;childLayout=tableLayout;fixedRows=1;rowLines=0;fontStyle=1;align=center;" parent="1" vertex="1"><mxGeometry x="40" y="40" width="320" height="180" as="geometry"/></mxCell><mxCell id="3" value="" style="shape=partialRectangle;html=1;whiteSpace=wrap;collapsible=0;dropTarget=0;pointerEvents=0;fillColor=none;top=0;left=0;bottom=1;right=0;points=[[0,0.5],[1,0.5]];portConstraint=eastwest;" parent="2" vertex="1"><mxGeometry y="30" width="320" height="30" as="geometry"/></mxCell><mxCell id="4" value="1" style="shape=partialRectangle;html=1;whiteSpace=wrap;connectable=0;fillColor=none;top=0;left=0;bottom=0;right=0;overflow=hidden;" parent="3" vertex="1"><mxGeometry width="46" height="30" as="geometry"><mxRectangle width="46" height="30" as="alternateBounds"/></mxGeometry></mxCell><mxCell id="5" value="uuid&amp;nbsp; &amp;nbsp; String" style="shape=partialRectangle;html=1;whiteSpace=wrap;connectable=0;fillColor=none;top=0;left=0;bottom=0;right=0;align=left;spacingLeft=6;overflow=hidden;" parent="3" vertex="1"><mxGeometry x="46" width="274" height="30" as="geometry"><mxRectangle width="274" height="30" as="alternateBounds"/></mxGeometry></mxCell><mxCell id="6" value="" style="shape=partialRectangle;html=1;whiteSpace=wrap;collapsible=0;dropTarget=0;pointerEvents=0;fillColor=none;top=0;left=0;bottom=0;right=0;points=[[0,0.5],[1,0.5]];portConstraint=eastwest;" parent="2" vertex="1"><mxGeometry y="60" width="320" height="30" as="geometry"/></mxCell><mxCell id="7" value="2" style="shape=partialRectangle;html=1;whiteSpace=wrap;connectable=0;fillColor=none;top=0;left=0;bottom=0;right=0;overflow=hidden;" parent="6" vertex="1"><mxGeometry width="46" height="30" as="geometry"><mxRectangle width="46" height="30" as="alternateBounds"/></mxGeometry></mxCell><mxCell id="8" value="fullName&amp;nbsp; &amp;nbsp; String" style="shape=partialRectangle;html=1;whiteSpace=wrap;connectable=0;fillColor=none;top=0;left=0;bottom=0;right=0;align=left;spacingLeft=6;overflow=hidden;" parent="6" vertex="1"><mxGeometry x="46" width="274" height="30" as="geometry"><mxRectangle width="274" height="30" as="alternateBounds"/></mxGeometry></mxCell><mxCell id="9" value="" style="shape=partialRectangle;html=1;whiteSpace=wrap;collapsible=0;dropTarget=0;pointerEvents=0;fillColor=none;top=0;left=0;bottom=0;right=0;points=[[0,0.5],[1,0.5]];portConstraint=eastwest;" parent="2" vertex="1"><mxGeometry y="90" width="320" height="30" as="geometry"/></mxCell><mxCell id="10" value="3" style="shape=partialRectangle;html=1;whiteSpace=wrap;connectable=0;fillColor=none;top=0;left=0;bottom=0;right=0;overflow=hidden;" parent="9" vertex="1"><mxGeometry width="46" height="30" as="geometry"><mxRectangle width="46" height="30" as="alternateBounds"/></mxGeometry></mxCell><mxCell id="11" value="contacts&amp;nbsp; &amp;nbsp; Map&amp;lt;ContactType, String&amp;gt;" style="shape=partialRectangle;html=1;whiteSpace=wrap;connectable=0;fillColor=none;top=0;left=0;bottom=0;right=0;align=left;spacingLeft=6;overflow=hidden;" parent="9" vertex="1"><mxGeometry x="46" width="274" height="30" as="geometry"><mxRectangle width="274" height="30" as="alternateBounds"/></mxGeometry></mxCell><mxCell id="12" value="" style="shape=partialRectangle;html=1;whiteSpace=wrap;collapsible=0;dropTarget=0;pointerEvents=0;fillColor=none;top=0;left=0;bottom=0;right=0;points=[[0,0.5],[1,0.5]];portConstraint=eastwest;" parent="2" vertex="1"><mxGeometry y="120" width="320" height="30" as="geometry"/></mxCell><mxCell id="13" value="4" style="shape=partialRectangle;html=1;whiteSpace=wrap;connectable=0;fillColor=none;top=0;left=0;bottom=0;right=0;overflow=hidden;" parent="12" vertex="1"><mxGeometry width="46" height="30" as="geometry"><mxRectangle width="46" height="30" as="alternateBounds"/></mxGeometry></mxCell><mxCell id="14" value="sections&amp;nbsp; &amp;nbsp; Map&amp;lt;SectionType, AbstractSection&amp;gt;" style="shape=partialRectangle;html=1;whiteSpace=wrap;connectable=0;fillColor=none;top=0;left=0;bottom=0;right=0;align=left;spacingLeft=6;overflow=hidden;" parent="12" vertex="1"><mxGeometry x="46" width="274" height="30" as="geometry"><mxRectangle width="274" height="30" as="alternateBounds"/></mxGeometry></mxCell><mxCell id="37" value="ContactType" style="shape=table;html=1;whiteSpace=wrap;startSize=30;container=1;collapsible=0;childLayout=tableLayout;fixedRows=1;rowLines=0;fontStyle=1;align=center;" parent="1" vertex="1"><mxGeometry x="480" y="40" width="200" height="90" as="geometry"/></mxCell><mxCell id="38" value="" style="shape=partialRectangle;html=1;whiteSpace=wrap;collapsible=0;dropTarget=0;pointerEvents=0;fillColor=none;top=0;left=0;bottom=1;right=0;points=[[0,0.5],[1,0.5]];portConstraint=eastwest;" parent="37" vertex="1"><mxGeometry y="30" width="200" height="30" as="geometry"/></mxCell><mxCell id="39" value="1" style="shape=partialRectangle;html=1;whiteSpace=wrap;connectable=0;fillColor=none;top=0;left=0;bottom=0;right=0;overflow=hidden;" parent="38" vertex="1"><mxGeometry width="44" height="30" as="geometry"><mxRectangle width="44" height="30" as="alternateBounds"/></mxGeometry></mxCell><mxCell id="40" value="title&amp;nbsp; &amp;nbsp; String" style="shape=partialRectangle;html=1;whiteSpace=wrap;connectable=0;fillColor=none;top=0;left=0;bottom=0;right=0;align=left;spacingLeft=6;overflow=hidden;" parent="38" vertex="1"><mxGeometry x="44" width="156" height="30" as="geometry"><mxRectangle width="156" height="30" as="alternateBounds"/></mxGeometry></mxCell><mxCell id="47" value="SectionType" style="shape=table;html=1;whiteSpace=wrap;startSize=30;container=1;collapsible=0;childLayout=tableLayout;fixedRows=1;rowLines=0;fontStyle=1;align=center;" parent="1" vertex="1"><mxGeometry x="480" y="160" width="200" height="90" as="geometry"/></mxCell><mxCell id="48" value="" style="shape=partialRectangle;html=1;whiteSpace=wrap;collapsible=0;dropTarget=0;pointerEvents=0;fillColor=none;top=0;left=0;bottom=1;right=0;points=[[0,0.5],[1,0.5]];portConstraint=eastwest;" parent="47" vertex="1"><mxGeometry y="30" width="200" height="30" as="geometry"/></mxCell><mxCell id="49" value="1" style="shape=partialRectangle;html=1;whiteSpace=wrap;connectable=0;fillColor=none;top=0;left=0;bottom=0;right=0;overflow=hidden;" parent="48" vertex="1"><mxGeometry width="44" height="30" as="geometry"><mxRectangle width="44" height="30" as="alternateBounds"/></mxGeometry></mxCell><mxCell id="50" value="title&amp;nbsp; &amp;nbsp; String" style="shape=partialRectangle;html=1;whiteSpace=wrap;connectable=0;fillColor=none;top=0;left=0;bottom=0;right=0;align=left;spacingLeft=6;overflow=hidden;" parent="48" vertex="1"><mxGeometry x="44" width="156" height="30" as="geometry"><mxRectangle width="156" height="30" as="alternateBounds"/></mxGeometry></mxCell><mxCell id="54" value="AbstractSection" style="shape=table;html=1;whiteSpace=wrap;startSize=30;container=1;collapsible=0;childLayout=tableLayout;fixedRows=1;rowLines=0;fontStyle=1;align=center;" parent="1" vertex="1"><mxGeometry x="320" y="280" width="200" height="90" as="geometry"/></mxCell><mxCell id="55" value="" style="shape=partialRectangle;html=1;whiteSpace=wrap;collapsible=0;dropTarget=0;pointerEvents=0;fillColor=none;top=0;left=0;bottom=1;right=0;points=[[0,0.5],[1,0.5]];portConstraint=eastwest;" parent="54" vertex="1"><mxGeometry y="30" width="200" height="30" as="geometry"/></mxCell><mxCell id="56" value="" style="shape=partialRectangle;html=1;whiteSpace=wrap;connectable=0;fillColor=none;top=0;left=0;bottom=0;right=0;overflow=hidden;" parent="55" vertex="1"><mxGeometry width="44" height="30" as="geometry"><mxRectangle width="44" height="30" as="alternateBounds"/></mxGeometry></mxCell><mxCell id="57" value="" style="shape=partialRectangle;html=1;whiteSpace=wrap;connectable=0;fillColor=none;top=0;left=0;bottom=0;right=0;align=left;spacingLeft=6;overflow=hidden;" parent="55" vertex="1"><mxGeometry x="44" width="156" height="30" as="geometry"><mxRectangle width="156" height="30" as="alternateBounds"/></mxGeometry></mxCell><mxCell id="59" value="InfoSection" style="shape=table;html=1;whiteSpace=wrap;startSize=30;container=1;collapsible=0;childLayout=tableLayout;fixedRows=1;rowLines=0;fontStyle=1;align=center;" parent="1" vertex="1"><mxGeometry x="40" y="280" width="180" height="90" as="geometry"/></mxCell><mxCell id="60" value="" style="shape=partialRectangle;html=1;whiteSpace=wrap;collapsible=0;dropTarget=0;pointerEvents=0;fillColor=none;top=0;left=0;bottom=1;right=0;points=[[0,0.5],[1,0.5]];portConstraint=eastwest;" parent="59" vertex="1"><mxGeometry y="30" width="180" height="30" as="geometry"/></mxCell><mxCell id="61" value="1" style="shape=partialRectangle;html=1;whiteSpace=wrap;connectable=0;fillColor=none;top=0;left=0;bottom=0;right=0;overflow=hidden;" parent="60" vertex="1"><mxGeometry width="40" height="30" as="geometry"/></mxCell><mxCell id="62" value="content&amp;nbsp; &amp;nbsp; String" style="shape=partialRectangle;html=1;whiteSpace=wrap;connectable=0;fillColor=none;top=0;left=0;bottom=0;right=0;align=left;spacingLeft=6;overflow=hidden;" parent="60" vertex="1"><mxGeometry x="40" width="140" height="30" as="geometry"/></mxCell><mxCell id="63" value="ListSection" style="shape=table;html=1;whiteSpace=wrap;startSize=30;container=1;collapsible=0;childLayout=tableLayout;fixedRows=1;rowLines=0;fontStyle=1;align=center;" parent="1" vertex="1"><mxGeometry x="600" y="280" width="200" height="90" as="geometry"/></mxCell><mxCell id="64" value="" style="shape=partialRectangle;html=1;whiteSpace=wrap;collapsible=0;dropTarget=0;pointerEvents=0;fillColor=none;top=0;left=0;bottom=1;right=0;points=[[0,0.5],[1,0.5]];portConstraint=eastwest;" parent="63" vertex="1"><mxGeometry y="30" width="200" height="30" as="geometry"/></mxCell><mxCell id="65" value="1" style="shape=partialRectangle;html=1;whiteSpace=wrap;connectable=0;fillColor=none;top=0;left=0;bottom=0;right=0;overflow=hidden;" parent="64" vertex="1"><mxGeometry width="44" height="30" as="geometry"><mxRectangle width="44" height="30" as="alternateBounds"/></mxGeometry></mxCell><mxCell id="66" value="elements&amp;nbsp; &amp;nbsp; List&amp;lt;Strings&amp;gt;" style="shape=partialRectangle;html=1;whiteSpace=wrap;connectable=0;fillColor=none;top=0;left=0;bottom=0;right=0;align=left;spacingLeft=6;overflow=hidden;" parent="64" vertex="1"><mxGeometry x="44" width="156" height="30" as="geometry"><mxRectangle width="156" height="30" as="alternateBounds"/></mxGeometry></mxCell><mxCell id="69" value="Link" style="shape=table;html=1;whiteSpace=wrap;startSize=30;container=1;collapsible=0;childLayout=tableLayout;fixedRows=1;rowLines=0;fontStyle=1;align=center;" parent="1" vertex="1"><mxGeometry x="600" y="440" width="200" height="120" as="geometry"/></mxCell><mxCell id="70" value="" style="shape=partialRectangle;html=1;whiteSpace=wrap;collapsible=0;dropTarget=0;pointerEvents=0;fillColor=none;top=0;left=0;bottom=1;right=0;points=[[0,0.5],[1,0.5]];portConstraint=eastwest;" parent="69" vertex="1"><mxGeometry y="30" width="200" height="30" as="geometry"/></mxCell><mxCell id="71" value="1" style="shape=partialRectangle;html=1;whiteSpace=wrap;connectable=0;fillColor=none;top=0;left=0;bottom=0;right=0;overflow=hidden;" parent="70" vertex="1"><mxGeometry width="44" height="30" as="geometry"><mxRectangle width="44" height="30" as="alternateBounds"/></mxGeometry></mxCell><mxCell id="72" value="name&amp;nbsp; &amp;nbsp; String" style="shape=partialRectangle;html=1;whiteSpace=wrap;connectable=0;fillColor=none;top=0;left=0;bottom=0;right=0;align=left;spacingLeft=6;overflow=hidden;" parent="70" vertex="1"><mxGeometry x="44" width="156" height="30" as="geometry"><mxRectangle width="156" height="30" as="alternateBounds"/></mxGeometry></mxCell><mxCell id="76" value="" style="shape=partialRectangle;html=1;whiteSpace=wrap;collapsible=0;dropTarget=0;pointerEvents=0;fillColor=none;top=0;left=0;bottom=1;right=0;points=[[0,0.5],[1,0.5]];portConstraint=eastwest;" parent="69" vertex="1"><mxGeometry y="60" width="200" height="30" as="geometry"/></mxCell><mxCell id="77" value="2" style="shape=partialRectangle;html=1;whiteSpace=wrap;connectable=0;fillColor=none;top=0;left=0;bottom=0;right=0;overflow=hidden;" parent="76" vertex="1"><mxGeometry width="44" height="30" as="geometry"><mxRectangle width="44" height="30" as="alternateBounds"/></mxGeometry></mxCell><mxCell id="78" value="url&amp;nbsp; &amp;nbsp; String" style="shape=partialRectangle;html=1;whiteSpace=wrap;connectable=0;fillColor=none;top=0;left=0;bottom=0;right=0;align=left;spacingLeft=6;overflow=hidden;" parent="76" vertex="1"><mxGeometry x="44" width="156" height="30" as="geometry"><mxRectangle width="156" height="30" as="alternateBounds"/></mxGeometry></mxCell><mxCell id="79" value="Organization" style="shape=table;html=1;whiteSpace=wrap;startSize=30;container=1;collapsible=0;childLayout=tableLayout;fixedRows=1;rowLines=0;fontStyle=1;align=center;" parent="1" vertex="1"><mxGeometry x="320" y="520" width="200" height="210" as="geometry"/></mxCell><mxCell id="80" value="" style="shape=partialRectangle;html=1;whiteSpace=wrap;collapsible=0;dropTarget=0;pointerEvents=0;fillColor=none;top=0;left=0;bottom=1;right=0;points=[[0,0.5],[1,0.5]];portConstraint=eastwest;" parent="79" vertex="1"><mxGeometry y="30" width="200" height="30" as="geometry"/></mxCell><mxCell id="81" value="1" style="shape=partialRectangle;html=1;whiteSpace=wrap;connectable=0;fillColor=none;top=0;left=0;bottom=0;right=0;overflow=hidden;" parent="80" vertex="1"><mxGeometry width="44" height="30" as="geometry"><mxRectangle width="44" height="30" as="alternateBounds"/></mxGeometry></mxCell><mxCell id="82" value="link&amp;nbsp; &amp;nbsp; Link" style="shape=partialRectangle;html=1;whiteSpace=wrap;connectable=0;fillColor=none;top=0;left=0;bottom=0;right=0;align=left;spacingLeft=6;overflow=hidden;" parent="80" vertex="1"><mxGeometry x="44" width="156" height="30" as="geometry"><mxRectangle width="156" height="30" as="alternateBounds"/></mxGeometry></mxCell><mxCell id="83" value="" style="shape=partialRectangle;html=1;whiteSpace=wrap;collapsible=0;dropTarget=0;pointerEvents=0;fillColor=none;top=0;left=0;bottom=0;right=0;points=[[0,0.5],[1,0.5]];portConstraint=eastwest;" parent="79" vertex="1"><mxGeometry y="60" width="200" height="30" as="geometry"/></mxCell><mxCell id="84" value="2" style="shape=partialRectangle;html=1;whiteSpace=wrap;connectable=0;fillColor=none;top=0;left=0;bottom=0;right=0;overflow=hidden;" parent="83" vertex="1"><mxGeometry width="44" height="30" as="geometry"><mxRectangle width="44" height="30" as="alternateBounds"/></mxGeometry></mxCell><mxCell id="85" value="startDate&amp;nbsp; &amp;nbsp; LocalDate" style="shape=partialRectangle;html=1;whiteSpace=wrap;connectable=0;fillColor=none;top=0;left=0;bottom=0;right=0;align=left;spacingLeft=6;overflow=hidden;" parent="83" vertex="1"><mxGeometry x="44" width="156" height="30" as="geometry"><mxRectangle width="156" height="30" as="alternateBounds"/></mxGeometry></mxCell><mxCell id="86" value="" style="shape=partialRectangle;html=1;whiteSpace=wrap;collapsible=0;dropTarget=0;pointerEvents=0;fillColor=none;top=0;left=0;bottom=0;right=0;points=[[0,0.5],[1,0.5]];portConstraint=eastwest;" parent="79" vertex="1"><mxGeometry y="90" width="200" height="30" as="geometry"/></mxCell><mxCell id="87" value="3" style="shape=partialRectangle;html=1;whiteSpace=wrap;connectable=0;fillColor=none;top=0;left=0;bottom=0;right=0;overflow=hidden;" parent="86" vertex="1"><mxGeometry width="44" height="30" as="geometry"><mxRectangle width="44" height="30" as="alternateBounds"/></mxGeometry></mxCell><mxCell id="88" value="endDate&amp;nbsp; &amp;nbsp; LocalDate" style="shape=partialRectangle;html=1;whiteSpace=wrap;connectable=0;fillColor=none;top=0;left=0;bottom=0;right=0;align=left;spacingLeft=6;overflow=hidden;" parent="86" vertex="1"><mxGeometry x="44" width="156" height="30" as="geometry"><mxRectangle width="156" height="30" as="alternateBounds"/></mxGeometry></mxCell><mxCell id="89" value="" style="shape=partialRectangle;html=1;whiteSpace=wrap;collapsible=0;dropTarget=0;pointerEvents=0;fillColor=none;top=0;left=0;bottom=0;right=0;points=[[0,0.5],[1,0.5]];portConstraint=eastwest;" parent="79" vertex="1"><mxGeometry y="120" width="200" height="30" as="geometry"/></mxCell><mxCell id="90" value="4" style="shape=partialRectangle;html=1;whiteSpace=wrap;connectable=0;fillColor=none;top=0;left=0;bottom=0;right=0;overflow=hidden;" parent="89" vertex="1"><mxGeometry width="44" height="30" as="geometry"><mxRectangle width="44" height="30" as="alternateBounds"/></mxGeometry></mxCell><mxCell id="91" value="title&amp;nbsp; &amp;nbsp; String" style="shape=partialRectangle;html=1;whiteSpace=wrap;connectable=0;fillColor=none;top=0;left=0;bottom=0;right=0;align=left;spacingLeft=6;overflow=hidden;" parent="89" vertex="1"><mxGeometry x="44" width="156" height="30" as="geometry"><mxRectangle width="156" height="30" as="alternateBounds"/></mxGeometry></mxCell><mxCell id="92" value="" style="shape=partialRectangle;html=1;whiteSpace=wrap;collapsible=0;dropTarget=0;pointerEvents=0;fillColor=none;top=0;left=0;bottom=0;right=0;points=[[0,0.5],[1,0.5]];portConstraint=eastwest;" parent="79" vertex="1"><mxGeometry y="150" width="200" height="30" as="geometry"/></mxCell><mxCell id="93" value="5" style="shape=partialRectangle;html=1;whiteSpace=wrap;connectable=0;fillColor=none;top=0;left=0;bottom=0;right=0;overflow=hidden;" parent="92" vertex="1"><mxGeometry width="44" height="30" as="geometry"><mxRectangle width="44" height="30" as="alternateBounds"/></mxGeometry></mxCell><mxCell id="94" value="description&amp;nbsp; &amp;nbsp; String" style="shape=partialRectangle;html=1;whiteSpace=wrap;connectable=0;fillColor=none;top=0;left=0;bottom=0;right=0;align=left;spacingLeft=6;overflow=hidden;" parent="92" vertex="1"><mxGeometry x="44" width="156" height="30" as="geometry"><mxRectangle width="156" height="30" as="alternateBounds"/></mxGeometry></mxCell><mxCell id="95" value="OrganizationSection" style="shape=table;html=1;whiteSpace=wrap;startSize=30;container=1;collapsible=0;childLayout=tableLayout;fixedRows=1;rowLines=0;fontStyle=1;align=center;" parent="1" vertex="1"><mxGeometry x="40" y="440" width="240" height="90" as="geometry"/></mxCell><mxCell id="96" value="" style="shape=partialRectangle;html=1;whiteSpace=wrap;collapsible=0;dropTarget=0;pointerEvents=0;fillColor=none;top=0;left=0;bottom=1;right=0;points=[[0,0.5],[1,0.5]];portConstraint=eastwest;" parent="95" vertex="1"><mxGeometry y="30" width="240" height="30" as="geometry"/></mxCell><mxCell id="97" value="1" style="shape=partialRectangle;html=1;whiteSpace=wrap;connectable=0;fillColor=none;top=0;left=0;bottom=0;right=0;overflow=hidden;" parent="96" vertex="1"><mxGeometry width="40" height="30" as="geometry"/></mxCell><mxCell id="98" value="organizations&amp;nbsp; &amp;nbsp; List&amp;lt;Organization&amp;gt;" style="shape=partialRectangle;html=1;whiteSpace=wrap;connectable=0;fillColor=none;top=0;left=0;bottom=0;right=0;align=left;spacingLeft=6;overflow=hidden;" parent="96" vertex="1"><mxGeometry x="40" width="200" height="30" as="geometry"/></mxCell><mxCell id="110" value="" style="endArrow=open;endFill=1;endSize=12;html=1;rounded=0;entryX=0.5;entryY=0;entryDx=0;entryDy=0;exitX=1;exitY=0.5;exitDx=0;exitDy=0;" parent="1" source="12" target="54" edge="1"><mxGeometry width="160" relative="1" as="geometry"><mxPoint x="360" y="190" as="sourcePoint"/><mxPoint x="520" y="190" as="targetPoint"/></mxGeometry></mxCell><mxCell id="111" value="Use" style="endArrow=open;endSize=12;dashed=1;html=1;rounded=0;exitX=1;exitY=0.5;exitDx=0;exitDy=0;entryX=0;entryY=0.25;entryDx=0;entryDy=0;" parent="1" source="9" target="37" edge="1"><mxGeometry width="160" relative="1" as="geometry"><mxPoint x="370" y="129.5" as="sourcePoint"/><mxPoint x="530" y="129.5" as="targetPoint"/></mxGeometry></mxCell><mxCell id="112" value="Extends" style="endArrow=block;endSize=16;endFill=0;html=1;rounded=0;entryX=0;entryY=0.25;entryDx=0;entryDy=0;" parent="1" target="54" edge="1"><mxGeometry width="160" relative="1" as="geometry"><mxPoint x="220" y="300" as="sourcePoint"/><mxPoint x="310" y="300" as="targetPoint"/></mxGeometry></mxCell><mxCell id="113" value="Extends" style="endArrow=block;endSize=16;endFill=0;html=1;rounded=0;entryX=1;entryY=0.25;entryDx=0;entryDy=0;" parent="1" target="54" edge="1"><mxGeometry width="160" relative="1" as="geometry"><mxPoint x="600" y="300" as="sourcePoint"/><mxPoint x="700" y="302.5" as="targetPoint"/></mxGeometry></mxCell><mxCell id="114" value="Extends" style="endArrow=block;endSize=16;endFill=0;html=1;rounded=0;exitX=0.75;exitY=0;exitDx=0;exitDy=0;entryX=0;entryY=0.5;entryDx=0;entryDy=0;" parent="1" source="95" target="55" edge="1"><mxGeometry width="160" relative="1" as="geometry"><mxPoint x="240" y="320" as="sourcePoint"/><mxPoint x="280" y="340" as="targetPoint"/></mxGeometry></mxCell><mxCell id="115" value="Use" style="endArrow=open;endSize=12;dashed=1;html=1;rounded=0;exitX=1.01;exitY=0.09;exitDx=0;exitDy=0;exitPerimeter=0;entryX=0;entryY=0.25;entryDx=0;entryDy=0;" parent="1" source="79" target="69" edge="1"><mxGeometry width="160" relative="1" as="geometry"><mxPoint x="540" y="460" as="sourcePoint"/><mxPoint x="570" y="460" as="targetPoint"/></mxGeometry></mxCell><mxCell id="116" value="Use" style="endArrow=open;endSize=12;dashed=1;html=1;rounded=0;entryX=0.25;entryY=0;entryDx=0;entryDy=0;" parent="1" target="79" edge="1"><mxGeometry width="160" relative="1" as="geometry"><mxPoint x="280" y="460" as="sourcePoint"/><mxPoint x="440" y="460" as="targetPoint"/></mxGeometry></mxCell><mxCell id="117" value="Use" style="endArrow=open;endSize=12;dashed=1;html=1;rounded=0;entryX=0;entryY=0.25;entryDx=0;entryDy=0;exitX=0.5;exitY=0;exitDx=0;exitDy=0;" parent="1" source="54" target="47" edge="1"><mxGeometry width="160" relative="1" as="geometry"><mxPoint x="425" y="280" as="sourcePoint"/><mxPoint x="503" y="211.10000000000002" as="targetPoint"/></mxGeometry></mxCell></root></mxGraphModel></diagram></mxfile>